<svg width="218" height="32" viewBox="0 0 218 32" fill="none" xmlns="http://www.w3.org/2000/svg">
<path d="M68.1348 10.9409H79.6589V13.1763H70.3512V19.0994H78.4907V21.3348H70.3512V27.2832H79.6589V29.4933H68.1348V10.9409Z" fill="#1C5BB7" stroke="#1C5BB7" stroke-width="1.65"/>
<path d="M85.4815 22.7933V29.5058H83.2461V17.5017C83.2461 16.5671 83.4229 15.6894 83.7828 14.8685C84.1364 14.0476 84.6227 13.3277 85.2352 12.7215C85.8477 12.1153 86.5613 11.6291 87.3822 11.2691C88.2031 10.9155 89.0934 10.7324 90.0406 10.7324C90.9752 10.7324 91.8529 10.9092 92.6738 11.2691C93.4947 11.6228 94.2146 12.1089 94.8208 12.7215C95.427 13.334 95.9132 14.0476 96.2732 14.8685C96.6268 15.6894 96.8099 16.5671 96.8099 17.5017V29.5058H94.5998V22.7933H85.4815ZM94.5872 17.5017C94.5872 16.8765 94.4672 16.2829 94.2336 15.7336C93.9936 15.1842 93.6715 14.698 93.2548 14.2812C92.838 13.8645 92.3581 13.5424 91.8024 13.3024C91.253 13.0625 90.6595 12.9489 90.0343 12.9489C89.4092 12.9489 88.8156 13.0688 88.2662 13.3024C87.7169 13.5424 87.2306 13.8645 86.8139 14.2812C86.3971 14.698 86.075 15.1779 85.8351 15.7336C85.5951 16.2829 85.4815 16.8765 85.4815 17.5017V20.5769H94.5872V17.5017Z" fill="#1C5BB7" stroke="#1C5BB7" stroke-width="1.65"/>
<path d="M100.693 10.9409H107.001C107.715 10.9409 108.39 11.0798 109.022 11.3451C109.66 11.6166 110.209 11.9892 110.676 12.4628C111.144 12.9364 111.51 13.4857 111.781 14.1172C112.053 14.7423 112.185 15.4243 112.185 16.1505C112.185 16.7441 112.097 17.3061 111.92 17.8302C111.743 18.3543 111.491 18.8342 111.169 19.2699C110.847 19.7056 110.468 20.0782 110.026 20.4002C109.584 20.7223 109.104 20.9622 108.573 21.1138C108.864 21.7768 109.161 22.4651 109.464 23.185C109.767 23.9049 110.076 24.6247 110.379 25.3446C110.683 26.0645 110.992 26.7843 111.295 27.4915C111.598 28.1988 111.889 28.8745 112.16 29.4996H109.767L106.256 21.3348H102.897V29.4996H100.687V10.9409H100.693ZM102.903 19.1058H106.995C107.399 19.1058 107.784 19.0299 108.15 18.8784C108.517 18.7268 108.832 18.5122 109.104 18.2407C109.375 17.9691 109.59 17.6533 109.742 17.2997C109.893 16.9461 109.969 16.5609 109.969 16.1568C109.969 15.7527 109.893 15.3675 109.742 15.0013C109.59 14.635 109.375 14.3193 109.104 14.0477C108.832 13.7762 108.517 13.5615 108.15 13.41C107.784 13.2584 107.399 13.1826 106.995 13.1826H102.903V19.1058Z" fill="#1C5BB7" stroke="#1C5BB7" stroke-width="1.65"/>
<path d="M126.987 15.7399C126.747 15.1905 126.425 14.7043 126.008 14.2876C125.591 13.8708 125.111 13.5487 124.555 13.3088C124.006 13.0688 123.413 12.9551 122.787 12.9551C122.162 12.9551 121.569 13.0751 121.019 13.3088C120.47 13.5487 119.984 13.8708 119.567 14.2876C119.15 14.7043 118.828 15.1842 118.588 15.7399C118.348 16.2893 118.235 16.8829 118.235 17.508V29.5121H116.024V17.508C116.024 16.5735 116.201 15.6957 116.561 14.8748C116.915 14.0539 117.401 13.334 118.014 12.7278C118.626 12.1216 119.34 11.6354 120.161 11.2755C120.981 10.9219 121.859 10.7388 122.794 10.7388C123.728 10.7388 124.606 10.9156 125.427 11.2755C126.248 11.6291 126.968 12.1153 127.574 12.7278C128.18 13.3403 128.666 14.0539 129.026 14.8748C129.38 15.6957 129.563 16.5735 129.563 17.508V29.5121H127.353V17.508C127.347 16.8766 127.227 16.2893 126.987 15.7399Z" fill="#1C5BB7" stroke="#1C5BB7" stroke-width="1.65"/>
<path d="M55.253 10.4482H52.001V30.0299H65.1985V26.7778H55.253V10.4482Z" fill="#F29040"/>
<path d="M150.433 24.3154L150.181 24.7701C149.776 25.4836 149.252 26.0582 148.621 26.475C147.996 26.8918 147.333 27.0875 146.594 27.0875C146.057 27.0875 145.552 26.9865 145.085 26.7844C144.611 26.5823 144.194 26.3045 143.841 25.9509C143.487 25.6099 143.209 25.1931 143.007 24.7258C142.805 24.2586 142.704 23.7534 142.704 23.2166V17.843C142.704 17.3125 142.805 16.801 143.007 16.3401C143.209 15.8665 143.493 15.4497 143.847 15.096C144.201 14.7424 144.617 14.4583 145.091 14.2562C145.558 14.0542 146.063 13.9531 146.6 13.9531C147.339 13.9531 148.002 14.1552 148.627 14.5783C149.265 15.0077 149.789 15.5886 150.187 16.3022L150.439 16.7505L153.256 15.2161L152.991 14.7551C152.296 13.5553 151.38 12.5828 150.269 11.8693C149.145 11.1431 147.907 10.7769 146.6 10.7769C145.628 10.7769 144.699 10.9663 143.841 11.3389C142.988 11.7051 142.23 12.2166 141.599 12.8544C140.968 13.4859 140.456 14.2436 140.083 15.096C139.711 15.9548 139.521 16.8831 139.521 17.8555V23.2293C139.521 24.2017 139.711 25.1237 140.083 25.9762C140.456 26.8224 140.961 27.5737 141.599 28.2052C142.23 28.843 142.988 29.3482 143.841 29.7207C144.699 30.0933 145.628 30.2827 146.6 30.2827C147.926 30.2827 149.164 29.9165 150.282 29.203C151.38 28.4957 152.29 27.5359 152.984 26.3551L153.256 25.8941L150.433 24.3154Z" fill="#F29040"/>
<path d="M156.003 11.5469H158.15V27.365H167.786V29.512H156.009V11.5469H156.003Z" fill="#1C5BB7" stroke="#1C5BB7" stroke-width="1.65"/>
<path d="M184.198 23.2227C184.198 24.1257 184.027 24.9719 183.68 25.7612C183.333 26.5505 182.866 27.2388 182.278 27.8324C181.685 28.426 180.99 28.8932 180.194 29.2342C179.399 29.5815 178.546 29.7521 177.643 29.7521C176.721 29.7521 175.863 29.5815 175.067 29.2342C174.271 28.8869 173.577 28.4197 172.983 27.8324C172.39 27.2451 171.922 26.5505 171.581 25.7612C171.234 24.9719 171.063 24.1257 171.063 23.2227V17.8489C171.063 16.9459 171.234 16.0935 171.581 15.2979C171.929 14.5022 172.396 13.8076 172.983 13.214C173.57 12.6205 174.271 12.1532 175.067 11.8122C175.863 11.4649 176.721 11.2944 177.643 11.2944C178.546 11.2944 179.399 11.4649 180.194 11.8122C180.99 12.1595 181.685 12.6268 182.278 13.214C182.872 13.8076 183.339 14.5022 183.68 15.2979C184.027 16.0935 184.198 16.9459 184.198 17.8489V23.2227ZM182.051 17.8553C182.051 17.2491 181.937 16.6744 181.704 16.144C181.476 15.6136 181.154 15.14 180.756 14.7422C180.352 14.3381 179.885 14.0223 179.355 13.795C178.818 13.5677 178.25 13.4477 177.643 13.4477C177.037 13.4477 176.462 13.5614 175.932 13.795C175.402 14.0286 174.928 14.3444 174.53 14.7422C174.126 15.1463 173.81 15.6136 173.583 16.144C173.356 16.6808 173.236 17.2491 173.236 17.8553V23.229C173.236 23.8352 173.349 24.4099 173.583 24.9403C173.81 25.4771 174.132 25.938 174.53 26.3358C174.934 26.7273 175.402 27.0431 175.932 27.2704C176.462 27.4977 177.037 27.6177 177.643 27.6177C178.25 27.6177 178.824 27.504 179.355 27.2704C179.885 27.0431 180.359 26.7273 180.756 26.3358C181.161 25.9443 181.476 25.4771 181.704 24.9403C181.931 24.4099 182.051 23.8352 182.051 23.229V17.8553Z" fill="#1C5BB7" stroke="#1C5BB7" stroke-width="1.65"/>
<path d="M200.805 23.153C200.805 24.056 200.635 24.9085 200.287 25.7041C199.94 26.4997 199.473 27.1944 198.886 27.788C198.298 28.3815 197.597 28.8488 196.802 29.1898C196.006 29.5371 195.154 29.7076 194.251 29.7076C193.329 29.7076 192.47 29.5371 191.674 29.1898C190.879 28.8425 190.184 28.3752 189.591 27.788C188.997 27.2007 188.53 26.4997 188.189 25.7041C187.841 24.9085 187.671 24.056 187.671 23.153V11.5215H189.837V23.153C189.837 23.7592 189.95 24.3339 190.184 24.8643C190.411 25.401 190.727 25.8683 191.131 26.2661C191.535 26.6702 192.003 26.986 192.533 27.2133C193.064 27.4406 193.638 27.5606 194.244 27.5606C194.851 27.5606 195.425 27.4469 195.956 27.2133C196.486 26.986 196.96 26.6639 197.358 26.2661C197.762 25.862 198.077 25.3947 198.305 24.8643C198.532 24.3339 198.652 23.7592 198.652 23.153V11.5215H200.793V23.153H200.805Z" fill="#1C5BB7" stroke="#1C5BB7" stroke-width="1.65"/>
<path d="M204.404 29.4615V11.5469H210.517C211.42 11.5469 212.272 11.7174 213.068 12.0647C213.864 12.412 214.558 12.8793 215.152 13.4665C215.745 14.0538 216.213 14.7548 216.554 15.5504C216.901 16.346 217.071 17.1985 217.071 18.1015V22.9826C217.071 23.8856 216.901 24.7381 216.554 25.5338C216.206 26.3294 215.739 27.0241 215.152 27.6176C214.565 28.2112 213.864 28.6785 213.068 29.0195C212.272 29.3668 211.42 29.5372 210.517 29.5372L204.404 29.4615ZM206.545 27.3903H210.511C211.117 27.3903 211.691 27.2766 212.222 27.043C212.752 26.8157 213.226 26.4936 213.624 26.0958C214.028 25.6917 214.344 25.2244 214.571 24.694C214.798 24.1635 214.918 23.5889 214.918 22.9826V18.1015C214.918 17.4953 214.804 16.9206 214.571 16.3902C214.337 15.8598 214.021 15.3925 213.624 14.9947C213.219 14.6032 212.752 14.2874 212.222 14.0601C211.685 13.8328 211.117 13.7128 210.511 13.7128H206.545V27.3903Z" fill="#1C5BB7" stroke="#1C5BB7" stroke-width="1.65"/>
<path d="M20.693 0.268994C20.5667 0.0795551 20.3457 -0.0214295 20.1184 0.00382896L7.63436 1.46247C7.46387 1.48141 7.31231 1.56982 7.21127 1.70875L0.113642 11.5975C-0.0189654 11.7806 -0.037914 12.0269 0.0694346 12.2289C0.170469 12.431 0.378855 12.5573 0.606181 12.5573H14.0184C14.2394 12.5573 14.4478 12.4373 14.5489 12.2416L20.7119 0.894135C20.8319 0.698382 20.8193 0.458432 20.693 0.268994Z" fill="#F29040"/>
<path d="M18.0342 4.31015C17.2828 3.01566 13.7781 3.65343 10.2041 5.72462C6.62998 7.79582 4.33778 10.5238 5.08291 11.8183L11.5554 21.9532L24.172 13.9968L18.0342 4.31015Z" fill="#F29040"/>
<path d="M1.52832 13.1318V14.6978C1.52832 15.222 1.95139 15.6387 2.46919 15.6387C2.99331 15.6387 3.41008 15.2156 3.41008 14.6978V13.1318H1.52832Z" fill="#F29040"/>
<path d="M16.8413 4.76523C16.2288 3.71069 13.3746 4.22854 10.4572 5.92086C7.53985 7.61317 5.67071 9.83592 6.28323 10.8905L11.5623 19.1563L21.8488 12.6648L16.8413 4.76523Z" fill="white"/>
<path d="M43.0845 23.0523C43.0845 27.984 39.0747 32.0001 34.1367 32.0001H9.32655C4.52744 32.0001 0.625 28.0534 0.625 23.2606C0.625 18.7646 4.01595 15.0517 8.43619 14.6033C9.62333 11.5597 12.5407 9.55162 15.8306 9.55162H17.0493C18.9942 6.71635 22.1768 5.04297 25.6309 5.04297H26.7675C32.2676 5.04297 36.7446 9.22322 37.1614 14.6475C40.6723 15.9167 43.0845 19.3077 43.0845 23.0523Z" fill="#1C5BB7"/>
<path d="M22.1959 28.4259V29.8278H14.9404V18.0889H17.7441V28.4259H22.1959Z" fill="white"/>
<path d="M30.0005 26.7843L31.2192 27.4664C30.7961 28.1862 30.253 28.7609 29.5837 29.1839C28.9206 29.6133 28.1882 29.828 27.3988 29.828C26.8179 29.828 26.2685 29.7144 25.757 29.4933C25.2455 29.2723 24.7972 28.9692 24.4183 28.5903C24.0394 28.2114 23.7364 27.7694 23.5153 27.2579C23.2943 26.7528 23.1807 26.2097 23.1807 25.6225V22.1684C23.1807 21.5875 23.2943 21.0381 23.5153 20.5266C23.7364 20.0151 24.0394 19.5668 24.4183 19.1879C24.7972 18.809 25.2455 18.5059 25.757 18.2849C26.2685 18.0639 26.8179 17.9502 27.3988 17.9502C28.1818 17.9502 28.908 18.1649 29.5774 18.6006C30.2467 19.0363 30.7961 19.6173 31.2192 20.3435L30.0005 21.0065C29.7163 20.5013 29.3437 20.0909 28.8891 19.7878C28.6239 19.611 28.3397 19.4847 28.0492 19.4089C27.904 19.4468 27.7651 19.4847 27.6325 19.5478C27.2915 19.693 26.9884 19.8951 26.7295 20.154C26.4706 20.4129 26.2685 20.716 26.117 21.057C25.9654 21.398 25.8959 21.7706 25.8959 22.1621V25.6162C25.8959 26.0077 25.9717 26.3739 26.117 26.7212C26.2622 27.0622 26.4643 27.3653 26.7295 27.6179C26.9884 27.8705 27.2915 28.0725 27.6325 28.2178C27.7714 28.2746 27.9103 28.3251 28.0556 28.3567C28.346 28.2872 28.6302 28.161 28.8891 27.9841C29.3437 27.7 29.7163 27.2895 30.0005 26.7843Z" fill="white"/>
<path d="M33.9916 29.8845H32.937V28.249H34.0169C36.4669 28.249 38.6644 26.6009 39.2012 24.214C39.94 20.924 37.4331 17.9309 34.2442 17.8614L33.4422 17.8425V15.4619C33.4422 11.7742 30.4554 8.78729 26.7677 8.78729H25.631C22.9726 8.78729 20.5667 10.3659 19.5122 12.8097L19.2975 13.3023H15.8307C13.5196 13.3023 11.6441 15.1777 11.6441 17.4889V18.3098H9.43402C6.93343 18.3098 4.59702 20.3367 4.38864 22.8247C4.14237 25.7673 6.44721 28.2427 9.32036 28.2427H11.9157V29.8782H9.32036C5.53159 29.8782 2.48163 26.6451 2.75316 22.7742C2.9868 19.4085 6.08095 16.6679 9.45296 16.6679H10.0592C10.457 13.8453 12.8944 11.6605 15.8244 11.6605H18.2366C19.6511 8.90099 22.499 7.14551 25.6247 7.14551H26.7613C31.3521 7.14551 35.0714 10.8648 35.0714 15.4556V16.2827C38.8349 16.8132 41.6449 20.4568 40.8114 24.4602C40.1547 27.6554 37.2499 29.8845 33.9916 29.8845Z" fill="white"/>
</svg>
