<svg width="642" height="212" viewBox="0 0 642 212" fill="none" xmlns="http://www.w3.org/2000/svg">
<path d="M361.53 104.07H321.76V38.7695H309.91V115.92H361.53V104.07Z" fill="#F29040"/>
<path d="M426.51 104.07H389.29V83.2699H421.83V71.3199H389.29V50.6199H426.51V38.6699H377.44V115.92H426.51V104.07Z" fill="#1C5BB7"/>
<path d="M491.77 46.2299C489.21 43.6699 486.16 41.6099 482.71 40.1199C479.25 38.6199 475.5 37.8599 471.59 37.8599C467.6 37.8599 463.83 38.6199 460.37 40.1199C456.92 41.6099 453.88 43.6699 451.31 46.2299C448.75 48.7899 446.69 51.8399 445.2 55.2899C443.7 58.7499 442.94 62.4999 442.94 66.4099V115.91H454.89V89.0599H488.3V115.91H500.15V66.4099C500.15 62.4899 499.39 58.7499 497.89 55.2899C496.39 51.8399 494.34 48.7899 491.77 46.2299ZM471.59 49.7099C473.88 49.7099 476.06 50.1499 478.06 51.0099C480.08 51.8799 481.87 53.0899 483.39 54.6099C484.91 56.1299 486.12 57.9199 486.99 59.9399C487.85 61.9499 488.29 64.1299 488.29 66.4199V77.2299H454.88V66.4199C454.88 64.1299 455.32 61.9499 456.18 59.9399C457.05 57.9199 458.26 56.1299 459.78 54.6099C461.3 53.0899 463.09 51.8799 465.11 51.0099C467.12 50.1399 469.3 49.7099 471.59 49.7099Z" fill="#1C5BB7"/>
<path d="M529.64 83.2697H540.58L554.61 115.92H567.44L566.53 113.82C565.45 111.31 564.29 108.64 563.07 105.79C561.85 102.94 560.63 100.08 559.41 97.1997L555.75 88.5597C554.76 86.2097 553.78 83.9497 552.84 81.7597C554.5 81.1197 556.06 80.2697 557.5 79.2197C559.37 77.8497 561.02 76.2197 562.39 74.3797C563.77 72.5297 564.85 70.4597 565.61 68.2197C566.37 65.9697 566.76 63.5497 566.76 61.0297C566.76 57.9197 566.17 54.9897 565.01 52.2997C563.85 49.6297 562.26 47.2597 560.28 45.2297C558.28 43.1997 555.9 41.5797 553.19 40.4297C550.47 39.2697 547.55 38.6797 544.52 38.6797H517.8V115.92H529.65V83.2697H529.64ZM529.64 50.6197H544.52C545.94 50.6197 547.3 50.8897 548.57 51.4197C549.84 51.9497 550.96 52.6997 551.9 53.6397C552.84 54.5797 553.59 55.6997 554.12 56.9697C554.65 58.2397 554.92 59.5997 554.92 61.0197C554.92 62.4397 554.65 63.7797 554.13 65.0097C553.6 66.2497 552.85 67.3597 551.91 68.2997C550.97 69.2397 549.85 69.9897 548.58 70.5197C547.31 71.0497 545.95 71.3197 544.53 71.3197H529.65V50.6197H529.64Z" fill="#1C5BB7"/>
<path d="M639.05 55.2899C637.56 51.8399 635.5 48.7899 632.94 46.2299C630.38 43.6699 627.33 41.6099 623.88 40.1199C620.42 38.6199 616.67 37.8599 612.76 37.8599C608.84 37.8599 605.1 38.6199 601.64 40.1199C598.19 41.6099 595.14 43.6699 592.58 46.2299C590.02 48.7899 587.96 51.8399 586.47 55.2899C584.97 58.7499 584.21 62.4999 584.21 66.4099V115.91H596.06V66.4099C596.06 64.1199 596.5 61.9399 597.36 59.9399C598.23 57.9199 599.44 56.1299 600.96 54.6099C602.48 53.0899 604.27 51.8799 606.29 51.0099C608.29 50.1499 610.47 49.7099 612.76 49.7099C615.05 49.7099 617.23 50.1499 619.23 51.0099C621.25 51.8799 623.04 53.0899 624.56 54.6099C626.08 56.1299 627.29 57.9199 628.16 59.9399C629.02 61.9399 629.46 64.1199 629.46 66.4099V115.91H641.31V66.4099C641.31 62.4899 640.55 58.7499 639.05 55.2899Z" fill="#1C5BB7"/>
<path d="M352.27 190.42C350.62 193.35 348.46 195.71 345.85 197.44C343.29 199.14 340.45 200 337.42 200C335.2 200 333.1 199.58 331.17 198.74C329.21 197.9 327.48 196.74 326.01 195.3C324.55 193.87 323.38 192.16 322.55 190.21C321.72 188.28 321.29 186.17 321.29 183.96V162.48C321.29 160.26 321.71 158.16 322.55 156.23C323.39 154.28 324.56 152.55 326.03 151.08C327.5 149.61 329.23 148.44 331.18 147.6C333.12 146.77 335.22 146.34 337.43 146.34C340.46 146.34 343.29 147.22 345.85 148.94C348.47 150.71 350.63 153.09 352.28 156.02L353.01 157.31L363.25 151.73L362.48 150.4C359.74 145.68 356.15 141.86 351.8 139.05C347.4 136.21 342.57 134.77 337.44 134.77C333.64 134.77 330 135.51 326.65 136.96C323.3 138.41 320.35 140.41 317.86 142.89C315.37 145.38 313.38 148.34 311.93 151.68C310.47 155.04 309.74 158.67 309.74 162.47V183.95C309.74 187.75 310.48 191.37 311.94 194.7C313.39 198.01 315.38 200.95 317.87 203.44C320.36 205.93 323.31 207.92 326.66 209.37C330.02 210.83 333.65 211.56 337.46 211.56C342.66 211.56 347.5 210.14 351.87 207.33C356.19 204.55 359.76 200.79 362.5 196.14L363.28 194.82L353.05 189.11L352.27 190.42Z" fill="#F29040"/>
<path d="M390.06 135.75H378.49V210.59H428.59V199.02H390.06V135.75Z" fill="#1C5BB7"/>
<path d="M491.02 142.89C488.53 140.4 485.57 138.41 482.23 136.96C478.87 135.5 475.24 134.77 471.44 134.77C467.57 134.77 463.91 135.51 460.55 136.96C457.21 138.41 454.25 140.41 451.76 142.89C449.27 145.38 447.28 148.34 445.83 151.68C444.37 155.04 443.64 158.68 443.64 162.47V183.95C443.64 187.75 444.38 191.37 445.84 194.7C447.29 198.01 449.28 200.95 451.77 203.44C454.26 205.93 457.22 207.92 460.56 209.37C463.92 210.83 467.59 211.56 471.45 211.56C475.25 211.56 478.88 210.82 482.25 209.37C485.6 207.92 488.55 205.92 491.04 203.44C493.53 200.96 495.52 198.01 496.97 194.7C498.43 191.37 499.17 187.75 499.17 183.95V162.47C499.17 158.67 498.43 155.04 496.98 151.68C495.51 148.34 493.51 145.38 491.02 142.89ZM471.43 200C469.21 200 467.11 199.58 465.18 198.74C463.22 197.9 461.49 196.74 460.02 195.3C458.56 193.87 457.39 192.16 456.55 190.21C455.72 188.28 455.29 186.17 455.29 183.96V162.48C455.29 160.26 455.71 158.16 456.55 156.23C457.39 154.28 458.56 152.55 460.03 151.08C461.49 149.61 463.23 148.45 465.18 147.6C467.12 146.77 469.22 146.34 471.43 146.34C473.64 146.34 475.75 146.76 477.68 147.6C479.63 148.44 481.37 149.61 482.83 151.08C484.3 152.55 485.47 154.28 486.31 156.23C487.14 158.17 487.57 160.27 487.57 162.49V183.97C487.57 186.18 487.15 188.29 486.31 190.22C485.47 192.17 484.3 193.88 482.84 195.31C481.37 196.75 479.63 197.91 477.68 198.75C475.75 199.58 473.65 200 471.43 200Z" fill="#1C5BB7"/>
<path d="M558.92 183.669C558.92 185.879 558.5 187.989 557.66 189.919C556.82 191.869 555.65 193.599 554.18 195.069C552.71 196.539 550.98 197.709 549.03 198.549C547.1 199.379 544.99 199.809 542.78 199.809C540.56 199.809 538.46 199.389 536.53 198.549C534.58 197.709 532.85 196.539 531.38 195.069C529.91 193.599 528.74 191.869 527.9 189.919C527.07 187.989 526.64 185.879 526.64 183.669V135.659H514.97V183.669C514.97 187.469 515.71 191.109 517.16 194.459C518.61 197.809 520.6 200.759 523.09 203.249C525.58 205.739 528.54 207.739 531.88 209.179C535.24 210.639 538.91 211.369 542.77 211.369C546.57 211.369 550.2 210.629 553.56 209.179C556.9 207.729 559.86 205.739 562.35 203.249C564.84 200.759 566.84 197.799 568.28 194.459C569.74 191.099 570.47 187.469 570.47 183.659V135.649H558.9V183.669H558.92Z" fill="#1C5BB7"/>
<path d="M632.33 143.88C629.84 141.39 626.88 139.4 623.54 137.95C620.18 136.49 616.54 135.76 612.75 135.76H586.8V210.38L612.74 210.69C616.54 210.69 620.17 209.95 623.54 208.5C626.88 207.05 629.84 205.06 632.33 202.57C634.82 200.08 636.81 197.12 638.26 193.78C639.72 190.42 640.45 186.79 640.45 182.99V163.48C640.45 159.68 639.71 156.05 638.26 152.68C636.81 149.32 634.82 146.37 632.33 143.88ZM598.38 147.42H612.75C614.96 147.42 617.07 147.84 619 148.68C620.95 149.52 622.69 150.68 624.16 152.12C625.62 153.55 626.79 155.26 627.63 157.21C628.46 159.15 628.89 161.25 628.89 163.46V182.97C628.89 185.18 628.47 187.29 627.63 189.22C626.79 191.17 625.62 192.9 624.15 194.37C622.68 195.84 620.95 197.01 619 197.85C617.07 198.68 614.96 199.11 612.75 199.11H598.38V147.42Z" fill="#1C5BB7"/>
<path d="M137.14 2.28969C136.3 1.04969 134.85 0.379691 133.36 0.559691L51.03 10.1797C49.91 10.3097 48.9 10.9097 48.24 11.8197L1.43003 77.0497C0.560033 78.2697 0.440035 79.8697 1.12003 81.2097C1.80003 82.5497 3.18003 83.3797 4.68003 83.3797H93.16C94.63 83.3797 95.9701 82.5797 96.6701 81.2897L137.33 6.4397C138.06 5.1297 137.98 3.52969 137.14 2.28969Z" fill="#F29040"/>
<path d="M119.61 28.9399C114.67 20.4199 91.55 24.5999 67.96 38.2699C44.37 51.9399 29.2601 69.9298 34.1901 78.4498L76.9 145.29L160.12 92.8098L119.61 28.9399Z" fill="#F29040"/>
<path d="M10.76 87.1099V97.4199C10.76 100.86 13.55 103.65 16.99 103.65C20.43 103.65 23.22 100.86 23.22 97.4199V87.1099H10.76Z" fill="#F29040"/>
<path d="M111.76 31.9395C107.73 24.9895 88.8801 28.3995 69.6401 39.5495C50.4101 50.6995 38.0801 65.3695 42.1001 72.3095L76.9301 126.809L144.8 84.0095L111.76 31.9395Z" fill="white"/>
<path d="M284.84 152.54C284.84 185.09 258.37 211.57 225.83 211.57H62.16C30.51 211.57 4.77002 185.55 4.77002 153.91C4.77002 124.26 27.15 99.7497 56.3 96.8197C64.13 76.7598 83.36 63.4997 105.09 63.4997H113.13C125.96 44.8097 146.94 33.7397 169.75 33.7397H177.25C213.54 33.7397 243.05 61.2997 245.82 97.0897C268.96 105.51 284.84 127.86 284.84 152.54Z" fill="#1C5BB7"/>
<path d="M147.06 188.01V197.26H147.08V188.01H147.06Z" fill="white"/>
<path d="M147.06 188.01V197.26H99.22V119.81H117.7V188.01H147.06Z" fill="white"/>
<path d="M198.55 177.179L206.6 181.679C203.81 186.419 200.22 190.199 195.83 193.019C191.44 195.849 186.63 197.259 181.4 197.259C177.57 197.259 173.96 196.529 170.58 195.059C167.2 193.599 164.26 191.609 161.75 189.099C159.24 186.589 157.25 183.669 155.79 180.319C154.33 176.969 153.59 173.389 153.59 169.549V146.759C153.59 142.929 154.33 139.319 155.79 135.939C157.25 132.559 159.24 129.619 161.75 127.109C164.26 124.599 167.2 122.609 170.58 121.149C173.96 119.679 177.57 118.949 181.4 118.949C186.56 118.949 191.35 120.379 195.78 123.239C200.2 126.099 203.81 129.929 206.6 134.739L198.55 139.129C196.67 135.779 194.23 133.099 191.23 131.079C189.48 129.899 187.62 129.089 185.68 128.599C184.74 128.829 183.82 129.119 182.93 129.519C180.68 130.479 178.69 131.829 176.98 133.529C175.27 135.249 173.93 137.229 172.96 139.489C171.98 141.759 171.49 144.179 171.49 146.759V169.549C171.49 172.129 171.98 174.549 172.96 176.819C173.93 179.079 175.27 181.059 176.98 182.729C178.69 184.399 180.68 185.719 182.93 186.699C183.85 187.079 184.77 187.399 185.72 187.629C187.65 187.159 189.49 186.339 191.23 185.179C194.23 183.199 196.67 180.529 198.55 177.179Z" fill="white"/>
<path d="M224.89 197.619H217.94V186.819H225.06C241.2 186.819 255.71 175.959 259.24 160.219C264.12 138.509 247.56 118.759 226.55 118.319L221.27 118.209V102.499C221.27 78.1895 201.56 58.4794 177.25 58.4794H169.74C152.2 58.4794 136.35 68.8895 129.36 84.9995L127.95 88.2495H105.07C89.82 88.2495 77.4501 100.619 77.4501 115.869V121.269H62.8901C46.4001 121.269 30.99 134.639 29.62 151.069C27.99 170.489 43.2101 186.829 62.1401 186.829H79.25V197.629H62.1401C37.1501 197.629 17.02 176.289 18.81 150.769C20.37 128.569 40.76 110.479 63.02 110.479H67.0401C69.6701 91.8495 85.73 77.4595 105.08 77.4595H121C130.35 59.2595 149.11 47.6895 169.75 47.6895H177.26C207.53 47.6895 232.07 72.2295 232.07 102.499V107.949C256.88 111.439 275.42 135.469 269.93 161.889C265.55 182.929 246.37 197.619 224.89 197.619Z" fill="white"/>
</svg>
